<svg data-v-49b37e2d="" version="1.1" xmlns="http://www.w3.org/2000/svg" xmlns:xlink="http://www.w3.org/1999/xlink" x="0px" y="0px" viewBox="0 0 219.5 75" xml:space="preserve" height="24px" class="rodexLogo"><g data-v-49b37e2d="" class="currentColor"><polygon data-v-49b37e2d="" points="190.7,37.5 162,75 136.4,75 165.2,37.5 136.4,0 162,0 190.7,37.5" class="fillColor1"></polygon> <polygon data-v-49b37e2d="" points="194.9,32.1 219.5,0 193.9,0 182.1,15.4 194.9,32.1" class="fillColor1"></polygon> <polygon data-v-49b37e2d="" points="182.1,59.6 193.9,75 219.5,75 194.9,42.9 182.1,59.6" class="fillColor1"></polygon> <path data-v-49b37e2d="" d="M62.4,32.8c0.2,1.8,0.3,3.5,0.3,4.7c0,4.5-0.8,14.9-8.3,14.9c-3.4,0-5.4-2.2-6.6-5L62.4,32.8L62.4,32.8z
        M54.4,22.6c3.5,0,5.5,2.3,6.7,5.2L46.4,42.4c-0.3-1.9-0.3-3.6-0.3-4.9C46.1,33,46.9,22.6,54.4,22.6L54.4,22.6z M73.9,21.3
        l-3.1-3.1L66.9,22c-3.4-2.7-7.7-4.3-12.5-4.3c-11.2,0-19.9,8.7-19.9,19.8c0,4.8,1.6,9.1,4.4,12.5L35,53.8l3.1,3.1l3.8-3.8
        c3.4,2.6,7.6,4.1,12.4,4.1c11.2,0,19.9-8.7,19.9-19.8c0-4.7-1.6-9-4.3-12.4L73.9,21.3L73.9,21.3z M103,36.7c0,7-2.8,14.4-10.6,14.4
        h-3.8V23.9H92C99.6,23.9,103,30.3,103,36.7L103,36.7z M94.5,18.7H77.8v37.5h18.3c11.2,0,18.5-7.1,18.5-18.1
        C114.6,26.9,106.1,18.7,94.5,18.7L94.5,18.7z M142.6,50.3v6h-24.9V18.7h25v6h-13.7V34h12.3v6h-12.3v10.3H142.6L142.6,50.3z
        M11.3,24.2h3.3c3.6,0,6.1,2.5,6.1,6.2c0,5.3-3,6.3-8.2,6.3h-1.2V24.2L11.3,24.2z M32.3,30.2c0-7.1-7-11.4-13.5-11.4H0v37.5h11.3
        V38.1L20,56l0.1,0.3h12.8L24,40.5C29.2,39,32.3,35.1,32.3,30.2L32.3,30.2z" class="fillColor2"></path></g></svg>