<svg xmlns="http://www.w3.org/2000/svg" xmlns:xlink="http://www.w3.org/1999/xlink" version="1.1" id="Layer_1" x="0px" y="0px" viewBox="0 0 449 172" style="enable-background:new 0 0 449 172;" xml:space="preserve" width="449"  height="172" >
<style type="text/css">
	.st0{fill:#DB0032;}
	.st1{fill:#FFFFFF;}
</style>
<g>
	
		<image style="overflow:visible;opacity:0.4;enable-background:new    ;" width="316" height="32" xlink:href="821E273C370E54A4.png" transform="matrix(1 0 0 1 66.5 2.9889)">
	</image>
	<g>
		<g>
			<path class="st0" d="M81.2,13.4c-0.2-0.3-0.5-0.6-1-0.8s-0.8-0.2-1.2-0.2c-0.3,0-0.5,0-0.8,0.1c-0.2,0.1-0.5,0.1-0.7,0.3     c-0.2,0.1-0.4,0.3-0.5,0.5C77,13.5,77,13.7,77,14c0,0.4,0.1,0.8,0.4,1s0.7,0.4,1.1,0.6s0.9,0.3,1.4,0.5s1,0.4,1.4,0.6     s0.8,0.6,1.1,1.1c0.3,0.4,0.4,1.1,0.4,1.8c0,0.7-0.1,1.3-0.4,1.8s-0.6,0.9-1,1.2c-0.4,0.3-0.9,0.6-1.5,0.8s-1.1,0.2-1.8,0.2     c-0.8,0-1.5-0.1-2.3-0.4s-1.4-0.7-1.9-1.3l1.7-1.6c0.3,0.4,0.6,0.7,1.1,1c0.4,0.2,0.9,0.4,1.4,0.4c0.3,0,0.5,0,0.8-0.1     s0.5-0.2,0.7-0.3s0.4-0.3,0.5-0.5s0.2-0.5,0.2-0.8c0-0.5-0.1-0.8-0.4-1.1c-0.3-0.2-0.7-0.5-1.1-0.6s-0.9-0.3-1.4-0.5     c-0.5-0.1-1-0.4-1.4-0.6s-0.8-0.6-1.1-1.1c-0.3-0.4-0.4-1-0.4-1.8c0-0.6,0.1-1.2,0.4-1.7s0.6-0.9,1.1-1.2s0.9-0.6,1.5-0.7     c0.6-0.1,1.1-0.2,1.7-0.2c0.7,0,1.3,0.1,1.9,0.3s1.2,0.5,1.7,1L81.2,13.4z"/>
			<path class="st0" d="M91.4,12.7h-3.9v-2h10v2h-3.9v10.6h-2.2L91.4,12.7L91.4,12.7L91.4,12.7z"/>
			<path class="st0" d="M102.6,10.7h4.4c0.6,0,1.2,0.1,1.8,0.2s1.1,0.3,1.5,0.6s0.8,0.6,1,1.1s0.4,1.1,0.4,1.8     c0,0.9-0.2,1.7-0.8,2.3c-0.5,0.6-1.2,1-2.2,1.1l3.4,5.6h-2.7l-2.9-5.3h-1.6v5.3h-2.2L102.6,10.7L102.6,10.7z M106.6,16     c0.3,0,0.6,0,1,0s0.6-0.1,0.9-0.2s0.5-0.3,0.6-0.5c0.2-0.2,0.2-0.6,0.2-1c0-0.4-0.1-0.7-0.2-0.9c-0.1-0.2-0.4-0.4-0.6-0.5     c-0.2-0.1-0.5-0.2-0.8-0.2c-0.3,0-0.6-0.1-0.9-0.1h-1.9V16L106.6,16L106.6,16L106.6,16z"/>
			<path class="st0" d="M117.4,10.7h8.4v2h-6.1v3.1h5.8v2h-5.8v3.4h6.4v2h-8.7V10.7z"/>
			<path class="st0" d="M135.9,10.7h1.9l5.4,12.6h-2.6l-1.2-2.9h-5.5l-1.1,2.9h-2.5L135.9,10.7z M138.8,18.5l-1.9-5.1l-2,5.1H138.8z     "/>
			<path class="st0" d="M148.3,10.7h3.4l3.4,8.8l3.4-8.8h3.4v12.6h-2.1V12.8h0l-3.8,10.5h-1.6l-3.8-10.5h0v10.5h-2.1L148.3,10.7     L148.3,10.7z"/>
			<path class="st0" d="M168.3,10.7h8.4v2h-6.1v3.1h5.8v2h-5.8v3.4h6.4v2h-8.7V10.7z"/>
			<path class="st0" d="M182.7,10.7h4.4c0.6,0,1.2,0.1,1.8,0.2s1.1,0.3,1.5,0.6s0.8,0.6,1,1.1s0.4,1.1,0.4,1.8     c0,0.9-0.2,1.7-0.8,2.3c-0.5,0.6-1.2,1-2.2,1.1l3.4,5.6h-2.7l-2.9-5.3h-1.6v5.3h-2.2L182.7,10.7L182.7,10.7z M186.7,16     c0.3,0,0.6,0,1,0s0.6-0.1,0.9-0.2s0.5-0.3,0.6-0.5c0.2-0.2,0.2-0.6,0.2-1c0-0.4-0.1-0.7-0.2-0.9c-0.1-0.2-0.4-0.4-0.6-0.5     c-0.2-0.1-0.5-0.2-0.8-0.2c-0.3,0-0.6-0.1-0.9-0.1H185V16L186.7,16L186.7,16L186.7,16z"/>
			<path class="st0" d="M203.7,13.4c-0.2-0.3-0.5-0.6-1-0.8s-0.8-0.2-1.2-0.2c-0.3,0-0.5,0-0.8,0.1c-0.2,0.1-0.5,0.1-0.7,0.3     s-0.4,0.3-0.5,0.5c-0.1,0.2-0.2,0.4-0.2,0.7c0,0.4,0.1,0.8,0.5,1s0.7,0.4,1.1,0.6s0.9,0.3,1.4,0.5s1,0.4,1.4,0.6s0.8,0.6,1.1,1.1     c0.3,0.4,0.4,1.1,0.4,1.8c0,0.7-0.1,1.3-0.4,1.8s-0.6,0.9-1,1.2c-0.4,0.3-0.9,0.6-1.5,0.8s-1.1,0.2-1.8,0.2     c-0.8,0-1.5-0.1-2.3-0.4s-1.4-0.7-1.9-1.3l1.7-1.6c0.3,0.4,0.6,0.7,1.1,1c0.4,0.2,0.9,0.4,1.4,0.4c0.3,0,0.5,0,0.8-0.1     s0.5-0.2,0.7-0.3s0.4-0.3,0.5-0.5s0.2-0.5,0.2-0.8c0-0.5-0.1-0.8-0.4-1.1c-0.3-0.2-0.7-0.5-1.1-0.6s-0.9-0.3-1.4-0.5     c-0.5-0.1-1-0.4-1.4-0.6s-0.8-0.6-1.1-1.1c-0.3-0.4-0.4-1-0.4-1.8c0-0.6,0.1-1.2,0.4-1.7s0.6-0.9,1-1.2s0.9-0.6,1.5-0.7     s1.1-0.2,1.7-0.2c0.7,0,1.3,0.1,1.9,0.3s1.2,0.5,1.7,1L203.7,13.4z"/>
			<path class="st0" d="M224.2,10.7h1.9l5.4,12.6H229l-1.2-2.9h-5.5l-1.1,2.9h-2.5L224.2,10.7z M227,18.5l-1.9-5.1l-2,5.1H227z"/>
			<path class="st0" d="M236.5,10.7h3l6.1,9.4h0v-9.4h2.2v12.6H245l-6.2-9.7h0v9.7h-2.2L236.5,10.7L236.5,10.7z"/>
			<path class="st0" d="M254.2,10.7h5c0.8,0,1.6,0.1,2.4,0.4c0.8,0.3,1.5,0.6,2,1.2c0.6,0.5,1.1,1.2,1.4,2c0.4,0.8,0.5,1.7,0.5,2.8     c0,1.1-0.2,2-0.6,2.8c-0.4,0.8-0.9,1.4-1.6,2c-0.6,0.5-1.4,0.9-2.1,1.2c-0.8,0.3-1.6,0.4-2.3,0.4h-4.7L254.2,10.7L254.2,10.7z      M258.1,21.3c0.7,0,1.4-0.1,2-0.2s1.2-0.4,1.6-0.8s0.8-0.8,1.1-1.3c0.3-0.5,0.4-1.2,0.4-2c0-0.8-0.1-1.4-0.4-2s-0.6-1-1-1.3     s-0.9-0.6-1.5-0.8c-0.6-0.2-1.2-0.2-1.9-0.2h-2v8.5L258.1,21.3L258.1,21.3L258.1,21.3z"/>
			<path class="st0" d="M291.3,22.4c-1.5,0.8-3.3,1.2-5.2,1.2c-1,0-1.9-0.2-2.7-0.5s-1.5-0.8-2.1-1.3c-0.6-0.6-1-1.3-1.4-2.1     c-0.3-0.8-0.5-1.7-0.5-2.7c0-1,0.2-1.9,0.5-2.8c0.3-0.8,0.8-1.5,1.4-2.1s1.3-1,2.1-1.3s1.7-0.5,2.7-0.5c1,0,1.9,0.1,2.7,0.4     c0.8,0.2,1.6,0.6,2.3,1.2l-1.7,1.7c-0.4-0.4-0.9-0.7-1.5-0.9c-0.6-0.2-1.2-0.3-1.8-0.3c-0.6,0-1.2,0.1-1.8,0.4s-1,0.6-1.4,1     s-0.7,0.9-0.9,1.4c-0.2,0.6-0.3,1.1-0.3,1.8c0,0.7,0.1,1.3,0.3,1.9s0.5,1.1,0.9,1.5s0.8,0.7,1.4,1c0.5,0.2,1.1,0.4,1.8,0.4     c0.6,0,1.1-0.1,1.6-0.2s1-0.3,1.3-0.5v-3h-2.6v-2h4.8L291.3,22.4L291.3,22.4z"/>
			<path class="st0" d="M301.6,10.7h1.9l5.4,12.6h-2.6l-1.2-2.9h-5.5l-1.1,2.9h-2.5L301.6,10.7z M304.5,18.5l-1.9-5.1l-2,5.1H304.5z     "/>
			<path class="st0" d="M314,10.7h3.4l3.4,8.8l3.4-8.8h3.4v12.6h-2.1V12.8h0l-3.8,10.5H320l-3.8-10.5h0v10.5H314L314,10.7L314,10.7z     "/>
			<path class="st0" d="M334,10.7h8.3v2h-6.1v3.1h5.8v2h-5.8v3.4h6.4v2H334V10.7z"/>
			<path class="st0" d="M348.4,10.7h4.4c0.6,0,1.2,0.1,1.8,0.2s1.1,0.3,1.5,0.6s0.8,0.6,1,1.1s0.4,1.1,0.4,1.8     c0,0.9-0.2,1.7-0.8,2.3c-0.5,0.6-1.2,1-2.2,1.1l3.3,5.6h-2.7l-2.9-5.3h-1.6v5.3h-2.2L348.4,10.7L348.4,10.7z M352.4,16     c0.3,0,0.6,0,1,0s0.6-0.1,0.9-0.2s0.5-0.3,0.7-0.5c0.2-0.2,0.2-0.6,0.2-1c0-0.4-0.1-0.7-0.2-0.9c-0.2-0.2-0.4-0.4-0.6-0.5     c-0.2-0.1-0.5-0.2-0.8-0.2c-0.3,0-0.6-0.1-0.9-0.1h-1.9V16L352.4,16L352.4,16L352.4,16z"/>
			<path class="st0" d="M369.4,13.4c-0.2-0.3-0.5-0.6-1-0.8s-0.8-0.2-1.2-0.2c-0.3,0-0.5,0-0.8,0.1c-0.2,0.1-0.5,0.1-0.7,0.3     c-0.2,0.1-0.3,0.3-0.5,0.5c-0.1,0.2-0.2,0.4-0.2,0.7c0,0.4,0.2,0.8,0.5,1s0.7,0.4,1.1,0.6s0.9,0.3,1.4,0.5s1,0.4,1.4,0.6     s0.8,0.6,1.1,1.1c0.3,0.4,0.4,1.1,0.4,1.8c0,0.7-0.1,1.3-0.4,1.8s-0.6,0.9-1,1.2c-0.4,0.3-0.9,0.6-1.5,0.8s-1.1,0.2-1.8,0.2     c-0.8,0-1.5-0.1-2.3-0.4c-0.7-0.3-1.3-0.7-1.9-1.3l1.7-1.6c0.3,0.4,0.6,0.7,1.1,1c0.4,0.2,0.9,0.4,1.4,0.4c0.3,0,0.5,0,0.8-0.1     s0.5-0.2,0.7-0.3s0.4-0.3,0.5-0.5s0.2-0.5,0.2-0.8c0-0.5-0.2-0.8-0.4-1.1c-0.3-0.2-0.7-0.5-1.1-0.6s-0.9-0.3-1.4-0.5     c-0.5-0.1-1-0.4-1.4-0.6s-0.8-0.6-1.1-1.1c-0.3-0.4-0.4-1-0.4-1.8c0-0.6,0.1-1.2,0.4-1.7s0.6-0.9,1-1.2s0.9-0.6,1.5-0.7     s1.1-0.2,1.7-0.2c0.7,0,1.3,0.1,1.9,0.3s1.2,0.5,1.7,1L369.4,13.4z"/>
		</g>
	</g>
</g>
<g>
	
		<image style="overflow:visible;opacity:0.4;enable-background:new    ;" width="315" height="120" xlink:href="821E273C370E54A5.png" transform="matrix(1 0 0 1 67 55.9889)">
	</image>
	<g>
		<g>
			<g>
				<path class="st1" d="M118.2,104c0-9.5-9.4-15.4-18.2-15.4H74.6v50.6h15.2v-24.4l11.7,24l0.2,0.4H119l-12.1-21.3      C113.9,115.9,118.2,110.6,118.2,104z M89.8,95.9h4.5c4.9,0,8.3,3.4,8.3,8.3c0,7.1-4.1,8.5-11.1,8.5h-1.6V95.9z M266.8,131.1v8.1      h-33.6V88.6h33.7v8.1h-18.5v12.5H265v8.1h-16.5v13.9L266.8,131.1L266.8,131.1z M201.9,88.6h-22.4v50.6h24.7      c15.1,0,24.9-9.6,24.9-24.4C229.1,99.6,217.7,88.6,201.9,88.6z M213.4,112.8c0,9.4-3.8,19.4-14.3,19.4H194V95.5h4.6      C208.8,95.5,213.4,104.2,213.4,112.8z M174.2,92l-4.2-4.2l-5.2,5.2c-4.6-3.6-10.4-5.8-16.9-5.8c-15.1,0-26.9,11.7-26.9,26.7      c0,6.5,2.2,12.3,5.9,16.9l-5.1,5.1l4.2,4.2l5.2-5.2c4.5,3.5,10.3,5.6,16.6,5.6c15.1,0,26.9-11.7,26.9-26.7      c0-6.4-2.1-12.1-5.8-16.7L174.2,92z M147.9,93.8c4.7,0,7.5,3.1,9,6.9l-19.8,19.8c-0.4-2.5-0.5-4.9-0.5-6.6      C136.7,107.9,137.8,93.8,147.9,93.8z M158.6,107.6c0.3,2.4,0.4,4.7,0.4,6.3c0,6-1.1,20-11.2,20c-4.6,0-7.3-2.9-8.9-6.7      L158.6,107.6z"/>
			</g>
			<g>
				<polygon class="st0" points="331.7,113.9 293,164.5 258.5,164.5 297.3,113.9 258.5,63.3 293,63.3     "/>
				<polygon class="st0" points="337.4,106.6 370.6,63.3 336.1,63.3 320.1,84.1     "/>
				<polygon class="st0" points="320.1,143.6 336.1,164.5 370.6,164.5 337.4,121.2     "/>
			</g>
		</g>
	</g>
</g>
</svg>