<svg xmlns="http://www.w3.org/2000/svg" xmlns:xlink="http://www.w3.org/1999/xlink" version="1.1" id="Layer_2_00000044138064258513929270000000343118040456102785_" x="0px" y="0px" viewBox="0 0 714 151.3" style="enable-background:new 0 0 714 151.3;" xml:space="preserve" width="714"  height="151.3" >
<style type="text/css">
	.st0{fill:#FFFFFF;}
	.st1{fill:#DB0032;}
</style>
<g>
	<path class="st0" d="M11.2,7.9c-0.2-0.3-0.5-0.6-1-0.8S9.4,6.9,9,6.9C8.7,6.9,8.5,7,8.2,7C8,7.1,7.8,7.2,7.6,7.3   C7.4,7.4,7.2,7.6,7.1,7.8C7,8,6.9,8.3,6.9,8.5c0,0.4,0.2,0.8,0.5,1S8,9.9,8.5,10.1c0.4,0.2,0.9,0.3,1.4,0.5c0.5,0.1,1,0.4,1.4,0.6   c0.4,0.3,0.8,0.6,1.1,1.1c0.3,0.5,0.4,1,0.4,1.8c0,0.7-0.1,1.3-0.4,1.8c-0.2,0.5-0.6,0.9-1,1.2c-0.4,0.3-0.9,0.6-1.5,0.8   s-1.1,0.2-1.8,0.2c-0.8,0-1.5-0.1-2.3-0.4c-0.7-0.3-1.3-0.7-1.9-1.3l1.7-1.6c0.3,0.4,0.6,0.7,1.1,1c0.4,0.2,0.9,0.4,1.4,0.4   c0.3,0,0.5,0,0.8-0.1c0.3-0.1,0.5-0.2,0.7-0.3s0.4-0.3,0.5-0.5s0.2-0.5,0.2-0.8c0-0.5-0.2-0.8-0.4-1.1c-0.3-0.2-0.7-0.5-1.1-0.6   s-0.9-0.3-1.4-0.5c-0.5-0.1-1-0.4-1.4-0.6c-0.4-0.3-0.8-0.6-1.1-1.1c-0.3-0.4-0.4-1-0.4-1.8C4.6,8.1,4.7,7.5,5,7s0.6-0.9,1-1.2   S7,5.3,7.5,5.1C8.1,5,8.7,4.9,9.2,4.9c0.7,0,1.3,0.1,1.9,0.3s1.2,0.5,1.7,1L11.2,7.9z"/>
	<path class="st0" d="M21.4,7.2h-3.9v-2h10v2h-3.9v10.6h-2.2L21.4,7.2L21.4,7.2z"/>
	<path class="st0" d="M32.6,5.2H37c0.6,0,1.2,0.1,1.8,0.2s1.1,0.3,1.5,0.6s0.8,0.6,1,1.1s0.4,1,0.4,1.8c0,0.9-0.2,1.7-0.8,2.3   c-0.5,0.6-1.2,1-2.2,1.1l3.3,5.6h-2.7l-2.9-5.3h-1.6v5.3h-2.2L32.6,5.2L32.6,5.2z M36.6,10.6c0.3,0,0.6,0,1,0s0.6-0.1,0.9-0.2   s0.5-0.3,0.7-0.5c0.2-0.2,0.2-0.5,0.2-1c0-0.4-0.1-0.7-0.2-0.9c-0.2-0.2-0.4-0.4-0.6-0.5c-0.2-0.1-0.5-0.2-0.8-0.2   c-0.3,0-0.6,0-0.9,0h-1.9v3.4L36.6,10.6L36.6,10.6z"/>
	<path class="st0" d="M47.3,5.2h8.3v2h-6.1v3.1h5.8v2h-5.8v3.4H56v2h-8.7V5.2z"/>
	<path class="st0" d="M65.8,5.2h1.9l5.4,12.6h-2.6l-1.2-2.9H64l-1.1,2.9h-2.5L65.8,5.2z M68.7,13l-1.9-5.1l-2,5.1H68.7z"/>
	<path class="st0" d="M78.2,5.2h3.4L85,14l3.4-8.8h3.4v12.6h-2.1V7.3h0l-3.8,10.5h-1.6L80.4,7.3h0v10.5h-2.1L78.2,5.2L78.2,5.2z"/>
	<path class="st0" d="M98.2,5.2h8.3v2h-6.1v3.1h5.8v2h-5.8v3.4h6.4v2h-8.7V5.2z"/>
	<path class="st0" d="M112.7,5.2h4.4c0.6,0,1.2,0.1,1.8,0.2s1.1,0.3,1.5,0.6s0.8,0.6,1,1.1s0.4,1,0.4,1.8c0,0.9-0.2,1.7-0.8,2.3   c-0.5,0.6-1.2,1-2.2,1.1l3.3,5.6h-2.7l-2.9-5.3h-1.6v5.3h-2.2L112.7,5.2L112.7,5.2z M116.7,10.6c0.3,0,0.6,0,1,0s0.6-0.1,0.9-0.2   s0.5-0.3,0.7-0.5c0.2-0.2,0.2-0.5,0.2-1c0-0.4-0.1-0.7-0.2-0.9c-0.2-0.2-0.4-0.4-0.6-0.5c-0.2-0.1-0.5-0.2-0.8-0.2   c-0.3,0-0.6,0-0.9,0h-1.9v3.4L116.7,10.6L116.7,10.6z"/>
	<path class="st0" d="M133.6,7.9c-0.2-0.3-0.5-0.6-1-0.8s-0.8-0.2-1.2-0.2c-0.3,0-0.5,0-0.8,0.1c-0.2,0.1-0.5,0.1-0.7,0.3   c-0.2,0.1-0.3,0.3-0.5,0.5c-0.1,0.2-0.2,0.5-0.2,0.7c0,0.4,0.2,0.8,0.5,1s0.7,0.4,1.1,0.6c0.4,0.2,0.9,0.3,1.4,0.5   c0.5,0.1,1,0.4,1.4,0.6c0.4,0.3,0.8,0.6,1.1,1.1c0.3,0.5,0.4,1,0.4,1.8c0,0.7-0.1,1.3-0.4,1.8c-0.2,0.5-0.6,0.9-1,1.2   c-0.4,0.3-0.9,0.6-1.5,0.8s-1.1,0.2-1.8,0.2c-0.8,0-1.5-0.1-2.3-0.4c-0.7-0.3-1.3-0.7-1.9-1.3l1.7-1.6c0.3,0.4,0.6,0.7,1.1,1   c0.4,0.2,0.9,0.4,1.4,0.4c0.3,0,0.5,0,0.8-0.1c0.3-0.1,0.5-0.2,0.7-0.3s0.4-0.3,0.5-0.5s0.2-0.5,0.2-0.8c0-0.5-0.2-0.8-0.4-1.1   c-0.3-0.2-0.7-0.5-1.1-0.6s-0.9-0.3-1.4-0.5c-0.5-0.1-1-0.4-1.4-0.6c-0.4-0.3-0.8-0.6-1.1-1.1c-0.3-0.4-0.4-1-0.4-1.8   c0-0.6,0.1-1.2,0.4-1.7s0.6-0.9,1-1.2s0.9-0.5,1.5-0.7c0.6-0.1,1.1-0.2,1.7-0.2c0.7,0,1.3,0.1,1.9,0.3s1.2,0.5,1.7,1L133.6,7.9z"/>
	<path class="st0" d="M154.1,5.2h1.9l5.4,12.6h-2.6l-1.2-2.9h-5.5l-1.1,2.9h-2.5L154.1,5.2z M157,13L155,7.9l-2,5.1H157z"/>
	<path class="st0" d="M166.5,5.2h3l6.1,9.4h0V5.2h2.2v12.6h-2.8l-6.2-9.7h0v9.7h-2.2L166.5,5.2L166.5,5.2z"/>
	<path class="st0" d="M184.2,5.2h5c0.8,0,1.6,0.1,2.4,0.4c0.8,0.3,1.5,0.6,2,1.2c0.6,0.5,1.1,1.2,1.4,2c0.4,0.8,0.5,1.7,0.5,2.8   c0,1.1-0.2,2-0.6,2.8c-0.4,0.8-0.9,1.4-1.6,2c-0.7,0.5-1.4,0.9-2.2,1.2c-0.8,0.3-1.6,0.4-2.3,0.4h-4.7L184.2,5.2L184.2,5.2z    M188.1,15.8c0.7,0,1.4-0.1,2-0.2s1.2-0.4,1.6-0.8s0.8-0.8,1.1-1.3c0.3-0.5,0.4-1.2,0.4-2c0-0.8-0.1-1.4-0.4-2s-0.6-1-1-1.3   c-0.4-0.3-0.9-0.6-1.5-0.8c-0.6-0.2-1.2-0.2-1.9-0.2h-2v8.5L188.1,15.8L188.1,15.8z"/>
	<path class="st0" d="M221.3,16.9c-1.5,0.8-3.3,1.2-5.2,1.2c-1,0-1.9-0.2-2.7-0.5s-1.5-0.8-2.1-1.3c-0.6-0.6-1-1.3-1.4-2.1   c-0.3-0.8-0.5-1.7-0.5-2.7c0-1,0.2-1.9,0.5-2.8c0.3-0.8,0.8-1.5,1.4-2.1s1.3-1,2.1-1.3s1.7-0.5,2.7-0.5c1,0,1.9,0.1,2.7,0.4   c0.8,0.2,1.6,0.6,2.3,1.2l-1.7,1.7c-0.4-0.4-0.9-0.7-1.5-0.9c-0.6-0.2-1.2-0.3-1.8-0.3c-0.7,0-1.2,0.1-1.8,0.4s-1,0.5-1.4,1   c-0.4,0.4-0.7,0.9-0.9,1.4c-0.2,0.5-0.3,1.1-0.3,1.8c0,0.7,0.1,1.3,0.3,1.9s0.5,1.1,0.9,1.5s0.8,0.7,1.4,1c0.5,0.2,1.1,0.4,1.8,0.4   c0.6,0,1.1,0,1.6-0.2c0.5-0.1,1-0.3,1.3-0.5v-3h-2.6v-2h4.8L221.3,16.9L221.3,16.9z"/>
	<path class="st0" d="M231.6,5.2h1.9l5.4,12.6h-2.6l-1.2-2.9h-5.5l-1.1,2.9h-2.5L231.6,5.2z M234.4,13l-1.9-5.1l-2,5.1H234.4z"/>
	<path class="st0" d="M243.9,5.2h3.4l3.4,8.8l3.4-8.8h3.4v12.6h-2.1V7.3h0l-3.8,10.5h-1.6l-3.8-10.5h0v10.5h-2.1L243.9,5.2   L243.9,5.2z"/>
	<path class="st0" d="M263.9,5.2h8.3v2h-6.1v3.1h5.8v2h-5.8v3.4h6.4v2h-8.7V5.2z"/>
	<path class="st0" d="M278.4,5.2h4.4c0.6,0,1.2,0.1,1.8,0.2c0.6,0.1,1.1,0.3,1.5,0.6s0.8,0.6,1,1.1s0.4,1,0.4,1.8   c0,0.9-0.2,1.7-0.8,2.3c-0.5,0.6-1.2,1-2.2,1.1l3.3,5.6h-2.7l-2.9-5.3h-1.6v5.3h-2.2L278.4,5.2L278.4,5.2z M282.3,10.6   c0.3,0,0.6,0,1,0s0.6-0.1,0.9-0.2s0.5-0.3,0.7-0.5c0.2-0.2,0.2-0.5,0.2-1c0-0.4-0.1-0.7-0.2-0.9c-0.2-0.2-0.4-0.4-0.6-0.5   c-0.2-0.1-0.5-0.2-0.8-0.2c-0.3,0-0.6,0-0.9,0h-1.9v3.4L282.3,10.6L282.3,10.6z"/>
	<path class="st0" d="M299.3,7.9c-0.2-0.3-0.5-0.6-1-0.8s-0.8-0.2-1.2-0.2c-0.3,0-0.5,0-0.8,0.1c-0.2,0.1-0.5,0.1-0.7,0.3   c-0.2,0.1-0.3,0.3-0.5,0.5C295.1,8,295,8.3,295,8.5c0,0.4,0.2,0.8,0.5,1s0.7,0.4,1.1,0.6c0.4,0.2,0.9,0.3,1.4,0.5   c0.5,0.1,1,0.4,1.4,0.6c0.4,0.3,0.8,0.6,1.1,1.1c0.3,0.5,0.4,1,0.4,1.8c0,0.7-0.1,1.3-0.4,1.8c-0.2,0.5-0.6,0.9-1,1.2   c-0.4,0.3-0.9,0.6-1.5,0.8s-1.1,0.2-1.8,0.2c-0.8,0-1.5-0.1-2.3-0.4c-0.7-0.3-1.3-0.7-1.9-1.3l1.7-1.6c0.3,0.4,0.6,0.7,1.1,1   c0.4,0.2,0.9,0.4,1.4,0.4c0.3,0,0.5,0,0.8-0.1c0.3-0.1,0.5-0.2,0.7-0.3s0.4-0.3,0.5-0.5s0.2-0.5,0.2-0.8c0-0.5-0.2-0.8-0.4-1.1   c-0.3-0.2-0.7-0.5-1.1-0.6s-0.9-0.3-1.4-0.5c-0.5-0.1-1-0.4-1.4-0.6c-0.4-0.3-0.8-0.6-1.1-1.1c-0.3-0.4-0.4-1-0.4-1.8   c0-0.6,0.1-1.2,0.4-1.7s0.6-0.9,1-1.2s0.9-0.5,1.5-0.7c0.6-0.1,1.1-0.2,1.7-0.2c0.7,0,1.3,0.1,1.9,0.3s1.2,0.5,1.7,1L299.3,7.9z"/>
</g>
<g>
	<path class="st0" d="M316.9,78.2h6v13.5h15.8V78.2h6V112h-6V97.1h-15.8V112h-6V78.2z"/>
	<path class="st0" d="M372.8,78.2h5.2l14.6,33.8h-6.9l-3.2-7.7h-14.7l-3.1,7.7h-6.7L372.8,78.2z M380.5,99.1l-5.2-13.8L370,99.1   H380.5z"/>
	<path class="st0" d="M422.5,85.4c-0.6-0.9-1.5-1.6-2.6-2s-2.2-0.6-3.4-0.6c-0.7,0-1.4,0.1-2,0.2s-1.2,0.4-1.8,0.8s-1,0.8-1.3,1.4   s-0.5,1.2-0.5,2c0,1.1,0.4,2,1.2,2.6c0.8,0.6,1.8,1.1,3,1.6c1.2,0.5,2.5,0.9,3.9,1.3s2.7,1,3.9,1.7s2.2,1.7,3,2.9   c0.8,1.2,1.2,2.8,1.2,4.8c0,1.8-0.3,3.4-1,4.8s-1.6,2.5-2.7,3.4s-2.4,1.6-3.9,2s-3.1,0.7-4.7,0.7c-2.1,0-4.1-0.4-6.1-1   c-1.9-0.7-3.6-1.9-5-3.5l4.5-4.4c0.7,1.1,1.7,2,2.9,2.6s2.5,0.9,3.8,0.9c0.7,0,1.4-0.1,2.1-0.3c0.7-0.2,1.3-0.5,1.9-0.9   c0.6-0.4,1-0.9,1.4-1.5s0.5-1.3,0.5-2c0-1.2-0.4-2.2-1.2-2.9s-1.8-1.2-3-1.7c-1.2-0.5-2.5-0.9-3.9-1.3s-2.7-1-3.9-1.7   s-2.2-1.7-3-2.9c-0.8-1.2-1.2-2.8-1.2-4.8c0-1.8,0.4-3.3,1.1-4.5c0.7-1.3,1.7-2.3,2.8-3.2c1.2-0.8,2.5-1.5,4-1.9   c1.5-0.4,3-0.6,4.6-0.6c1.8,0,3.5,0.3,5.2,0.8s3.2,1.4,4.5,2.7L422.5,85.4z"/>
	<path class="st0" d="M466.6,78.2h6v28.4H487v5.5h-20.4V78.2z"/>
	<path class="st0" d="M511.9,78.2h5.2l14.6,33.8h-6.9l-3.2-7.7H507l-3.1,7.7h-6.7L511.9,78.2z M519.5,99.1l-5.2-13.8L509,99.1H519.5   z"/>
	<path class="st0" d="M545,78.2h8l16.4,25.1h0.1V78.2h6V112h-7.6l-16.7-25.9H551V112h-6L545,78.2L545,78.2z"/>
	<path class="st0" d="M592.6,78.2h13.3c2.2,0,4.4,0.3,6.4,1s3.9,1.7,5.5,3.1c1.6,1.4,2.9,3.2,3.8,5.3c1,2.1,1.4,4.6,1.4,7.5   c0,2.9-0.6,5.4-1.7,7.5s-2.5,3.9-4.2,5.3s-3.7,2.4-5.8,3.1c-2.1,0.7-4.2,1-6.2,1h-12.6L592.6,78.2L592.6,78.2z M603.1,106.5   c1.9,0,3.7-0.2,5.3-0.6c1.7-0.4,3.1-1.1,4.4-2s2.2-2.1,2.9-3.5s1.1-3.2,1.1-5.3c0-2-0.3-3.8-1-5.3c-0.6-1.5-1.5-2.6-2.7-3.6   s-2.5-1.6-4-2c-1.6-0.4-3.2-0.6-5.1-0.6h-5.5v22.9L603.1,106.5L603.1,106.5z"/>
	<path class="st0" d="M638.4,78.2h22.4v5.5h-16.4v8.3H660v5.5h-15.5v9.2h17.2v5.5h-23.3V78.2z"/>
	<path class="st0" d="M677.2,78.2h13.3c2.2,0,4.4,0.3,6.4,1s3.9,1.7,5.5,3.1c1.6,1.4,2.9,3.2,3.8,5.3c1,2.1,1.4,4.6,1.4,7.5   c0,2.9-0.6,5.4-1.7,7.5s-2.5,3.9-4.2,5.3s-3.7,2.4-5.8,3.1c-2.1,0.7-4.2,1-6.2,1h-12.6L677.2,78.2L677.2,78.2z M687.7,106.5   c1.9,0,3.7-0.2,5.3-0.6c1.7-0.4,3.1-1.1,4.4-2s2.2-2.1,2.9-3.5s1.1-3.2,1.1-5.3c0-2-0.3-3.8-1-5.3c-0.6-1.5-1.5-2.6-2.7-3.6   s-2.5-1.6-4-2c-1.6-0.4-3.2-0.6-5.1-0.6h-5.5v22.9L687.7,106.5L687.7,106.5z"/>
</g>
<g>
	<g>
		<path class="st0" d="M47.8,85.2c0-9.5-9.4-15.4-18.2-15.4H4.2v50.6h15.2V95.9l11.7,24l0.2,0.4h17.3L36.5,99.1    C43.5,97.1,47.8,91.8,47.8,85.2z M19.4,77.1h4.5c4.9,0,8.3,3.4,8.3,8.3c0,7.1-4.1,8.5-11.1,8.5h-1.7V77.1z M196.4,112.3v8.1h-33.6    V69.8h33.7v8.1H178v12.5h16.5v8.1H178v13.9L196.4,112.3L196.4,112.3z M131.5,69.8h-22.4v50.6h24.7c15.1,0,24.9-9.6,24.9-24.4    C158.7,80.8,147.3,69.8,131.5,69.8z M143,94c0,9.4-3.8,19.4-14.3,19.4h-5.1V76.7h4.6C138.4,76.7,143,85.4,143,94z M103.8,73.2    L99.5,69l-5.2,5.2c-4.6-3.6-10.4-5.8-16.9-5.8c-15.1,0-26.9,11.7-26.9,26.7c0,6.5,2.2,12.3,5.9,16.9l-5.1,5.1l4.2,4.2l5.2-5.2    c4.5,3.5,10.3,5.6,16.7,5.6c15.1,0,26.9-11.7,26.9-26.7c0-6.4-2.2-12.1-5.8-16.7L103.8,73.2z M77.5,75c4.7,0,7.5,3.1,9,6.9    l-19.8,19.8c-0.4-2.5-0.5-4.9-0.5-6.6C66.3,89.1,67.4,75,77.5,75z M88.2,88.8c0.3,2.4,0.4,4.7,0.4,6.3c0,6-1.1,20-11.2,20    c-4.6,0-7.3-2.9-8.9-6.7L88.2,88.8z"/>
	</g>
	<g>
		<polygon class="st1" points="261.3,95.1 222.6,145.7 188.1,145.7 226.9,95.1 188.1,44.5 222.6,44.5   "/>
		<polygon class="st1" points="267,87.8 300.2,44.5 265.7,44.5 249.7,65.3   "/>
		<polygon class="st1" points="249.7,124.8 265.7,145.7 300.2,145.7 267,102.4   "/>
	</g>
</g>
</svg>